<?xml version="1.0" encoding="UTF-8"?>
<!DOCTYPE svg PUBLIC "-//W3C//DTD SVG 1.1//EN" "http://www.w3.org/Graphics/SVG/1.1/DTD/svg11.dtd">
<svg xmlns="http://www.w3.org/2000/svg" version="1.1" width="2000px" height="625px" style="shape-rendering:geometricPrecision; text-rendering:geometricPrecision; image-rendering:optimizeQuality; fill-rule:evenodd; clip-rule:evenodd" xmlns:xlink="http://www.w3.org/1999/xlink">
<g><path style="opacity:0.983" fill="#ff595e" d="M 278.5,-0.5 C 286.167,-0.5 293.833,-0.5 301.5,-0.5C 328.09,3.21349 350.257,15.2135 368,35.5C 375.111,43.9459 381.445,52.9459 387,62.5C 451.779,186.057 512.779,311.39 570,438.5C 586.517,485.389 580.851,529.389 553,570.5C 528.585,601.624 496.752,619.624 457.5,624.5C 450.167,624.5 442.833,624.5 435.5,624.5C 410.714,621.962 387.381,614.462 365.5,602C 337.02,584.199 311.52,562.699 289,537.5C 267.194,561.65 242.694,582.484 215.5,600C 192.868,613.566 168.535,621.733 142.5,624.5C 135.167,624.5 127.833,624.5 120.5,624.5C 73.0661,618.702 37.5661,595.035 14,553.5C 6.81895,539.127 1.98562,524.127 -0.5,508.5C -0.5,497.167 -0.5,485.833 -0.5,474.5C 1.51871,463.429 4.35205,452.429 8,441.5C 65.6304,312.572 127.297,185.572 193,60.5C 211.696,26.251 240.196,5.91766 278.5,-0.5 Z M 283.5,41.5 C 312.228,40.4453 334.062,52.112 349,76.5C 413.68,198.873 474.347,323.206 531,449.5C 547.466,492.848 539.3,530.681 506.5,563C 472.828,587.613 436.828,591.28 398.5,574C 385.327,567.586 372.994,559.919 361.5,551C 345.841,537.341 330.841,523.007 316.5,508C 341.119,478.628 361.619,446.461 378,411.5C 391.774,381.63 397.441,350.297 395,317.5C 384.48,266.314 353.313,237.147 301.5,230C 264.156,226.601 232.656,238.434 207,265.5C 186.206,292.007 178.539,322.007 184,355.5C 190.909,390.643 203.909,423.309 223,453.5C 234.503,472.003 247.17,489.67 261,506.5C 261.418,508.788 260.751,510.788 259,512.5C 240.941,531.911 221.107,549.078 199.5,564C 176.82,579.254 151.82,586.254 124.5,585C 81.2091,579.375 53.7091,555.542 42,513.5C 38.0613,492.612 40.0613,472.279 48,452.5C 105.27,325.96 166.27,201.293 231,78.5C 242.762,57.8814 260.262,45.548 283.5,41.5 Z M 280.5,268.5 C 310.231,265.948 332.731,277.281 348,302.5C 354.624,319.298 356.29,336.632 353,354.5C 346.759,380.891 336.426,405.558 322,428.5C 312.138,444.527 301.305,459.86 289.5,474.5C 261.717,442.14 241.217,405.473 228,364.5C 220.933,341.787 222.599,319.787 233,298.5C 244.633,281.771 260.467,271.771 280.5,268.5 Z"/></g>
<g><path style="opacity:0.983" fill="#ff595e" d="M 1007.5,115.5 C 1040.58,116.738 1055.75,133.738 1053,166.5C 1045.13,189.687 1028.96,199.854 1004.5,197C 984.168,191.198 973.168,177.698 971.5,156.5C 973.681,133.997 985.681,120.331 1007.5,115.5 Z"/></g>
<g><path style="opacity:0.986" fill="#ff595e" d="M 1245.5,116.5 C 1265.83,116.5 1286.17,116.5 1306.5,116.5C 1306.33,159.835 1306.5,203.168 1307,246.5C 1323.8,230.285 1343.96,222.618 1367.5,223.5C 1422.88,225.398 1460.72,252.065 1481,303.5C 1492.45,341.232 1489.11,377.565 1471,412.5C 1442.06,456.547 1401.23,475.714 1348.5,470C 1331.96,466.816 1317.79,459.316 1306,447.5C 1305.67,451.5 1305.33,455.5 1305,459.5C 1303.74,462.428 1301.57,464.261 1298.5,465C 1280.84,465.5 1263.17,465.667 1245.5,465.5C 1245.5,349.167 1245.5,232.833 1245.5,116.5 Z M 1351.5,279.5 C 1373.5,278.332 1392.67,284.999 1409,299.5C 1427.48,322.406 1431.48,347.74 1421,375.5C 1409.7,397.768 1391.54,410.268 1366.5,413C 1341.88,416.135 1322.05,407.968 1307,388.5C 1306.33,360.5 1306.33,332.5 1307,304.5C 1318.77,290.535 1333.6,282.202 1351.5,279.5 Z"/></g>
<g><path style="opacity:0.985" fill="#ff5a5e" d="M 1999.5,330.5 C 1999.5,341.5 1999.5,352.5 1999.5,363.5C 1990.16,421.98 1956.49,457.48 1898.5,470C 1872.33,474.833 1848.33,469.833 1826.5,455C 1824,452.5 1821.5,450 1819,447.5C 1819.07,452.76 1818.07,457.76 1816,462.5C 1814.58,463.46 1813.08,464.293 1811.5,465C 1793.5,465.5 1775.5,465.667 1757.5,465.5C 1757.5,349.167 1757.5,232.833 1757.5,116.5C 1777.83,116.5 1798.17,116.5 1818.5,116.5C 1818.33,159.835 1818.5,203.168 1819,246.5C 1840.47,227.168 1865.63,219.668 1894.5,224C 1945.89,232.052 1979.39,260.885 1995,310.5C 1996.72,317.259 1998.22,323.925 1999.5,330.5 Z M 1863.5,279.5 C 1889.34,278.018 1910.51,287.018 1927,306.5C 1939.44,327.001 1942.11,348.667 1935,371.5C 1924.56,395.923 1906.06,409.756 1879.5,413C 1854.67,415.99 1834.5,407.823 1819,388.5C 1818.33,360.5 1818.33,332.5 1819,304.5C 1831.05,291.061 1845.89,282.728 1863.5,279.5 Z"/></g>
<g><path style="opacity:0.988" fill="#ff595e" d="M 810.5,223.5 C 830.45,221.269 849.45,224.436 867.5,233C 873.904,236.735 879.737,241.235 885,246.5C 885.333,242.833 885.667,239.167 886,235.5C 887.167,233 889,231.167 891.5,230C 909.497,229.5 927.497,229.333 945.5,229.5C 945.5,308.167 945.5,386.833 945.5,465.5C 927.83,465.667 910.164,465.5 892.5,465C 890.152,464.654 888.319,463.487 887,461.5C 885.855,456.917 885.189,452.251 885,447.5C 868.549,464.048 848.549,472.048 825,471.5C 779.813,470.583 745.147,451.25 721,413.5C 700.184,374.111 698.184,333.778 715,292.5C 734.681,252.738 766.514,229.738 810.5,223.5 Z M 825.5,280.5 C 849.909,278.297 869.742,286.63 885,305.5C 885.667,333.5 885.667,361.5 885,389.5C 870.553,407.545 851.72,415.712 828.5,414C 793.217,410.379 772.384,391.212 766,356.5C 762.568,327.876 772.735,305.71 796.5,290C 805.737,285.117 815.403,281.95 825.5,280.5 Z"/></g>
<g><path style="opacity:0.994" fill="#ff5a5e" d="M 1184.5,223.5 C 1193.17,223.334 1201.84,223.5 1210.5,224C 1214.45,224.462 1218.28,225.296 1222,226.5C 1222.5,245.164 1222.67,263.83 1222.5,282.5C 1203.32,276.752 1184.32,277.252 1165.5,284C 1155.94,287.893 1147.77,293.727 1141,301.5C 1140.5,356.166 1140.33,410.832 1140.5,465.5C 1120.17,465.5 1099.83,465.5 1079.5,465.5C 1079.5,386.833 1079.5,308.167 1079.5,229.5C 1097.84,229.333 1116.17,229.5 1134.5,230C 1136.29,230.785 1137.79,231.951 1139,233.5C 1140.13,237.749 1140.79,242.082 1141,246.5C 1153.24,234.465 1167.74,226.798 1184.5,223.5 Z"/></g>
<g><path style="opacity:0.983" fill="#ff595e" d="M 1617.5,223.5 C 1655.01,218.939 1686.18,230.606 1711,258.5C 1721.13,273.568 1726.47,290.235 1727,308.5C 1727.5,360.832 1727.67,413.166 1727.5,465.5C 1707.17,465.5 1686.83,465.5 1666.5,465.5C 1666.67,416.832 1666.5,368.166 1666,319.5C 1662.62,288.154 1645.12,274.654 1613.5,279C 1597.2,281.725 1583.7,289.225 1573,301.5C 1572.5,356.166 1572.33,410.832 1572.5,465.5C 1552.17,465.5 1531.83,465.5 1511.5,465.5C 1511.5,386.833 1511.5,308.167 1511.5,229.5C 1528.84,229.333 1546.17,229.5 1563.5,230C 1565.67,230.833 1567.17,232.333 1568,234.5C 1568.33,238.833 1568.67,243.167 1569,247.5C 1582.62,234.272 1598.79,226.272 1617.5,223.5 Z"/></g>
<g><path style="opacity:0.979" fill="#fe595f" d="M 982.5,229.5 C 1002.83,229.5 1023.17,229.5 1043.5,229.5C 1043.5,308.167 1043.5,386.833 1043.5,465.5C 1023.17,465.5 1002.83,465.5 982.5,465.5C 982.5,386.833 982.5,308.167 982.5,229.5 Z"/></g>
</svg>
